<?xml version="1.0" encoding="UTF-8"?>
<svg id="Layer_1" data-name="Layer 1" xmlns="http://www.w3.org/2000/svg" viewBox="0 0 18 18">
  <defs>
    <style>
      .cls-1 {
        fill: #3e7ca1;
      }
    </style>
  </defs>
  <path class="cls-1" d="M6,18c-1.67,0-3.08-.58-4.25-1.75s-1.75-2.58-1.75-4.25v-6c0-1.67.58-3.08,1.75-4.25S4.33,0,6,0h6c1.67,0,3.08.58,4.25,1.75s1.75,2.58,1.75,4.25v6c0,1.67-.58,3.08-1.75,4.25s-2.58,1.75-4.25,1.75h-6ZM6,16h6c1.1,0,2.04-.39,2.83-1.18.78-.78,1.18-1.73,1.18-2.83v-6c0-1.1-.39-2.04-1.18-2.83s-1.73-1.18-2.83-1.18h-6c-1.1,0-2.04.39-2.83,1.18-.78.78-1.18,1.73-1.18,2.83v6c0,1.1.39,2.04,1.18,2.83.78.78,1.73,1.18,2.83,1.18Z"/>
</svg>